<svg xmlns="http://www.w3.org/2000/svg" xmlns:xlink="http://www.w3.org/1999/xlink" viewBox="0 0 1366 493"><defs><style>.cls-1{isolation:isolate;}.cls-2{fill:#6cacd4;}.cls-3{fill:#2973ad;}.cls-4{fill:#bcd8e6;}.cls-5{fill:#fcbca4;}.cls-6{fill:#fc9474;}.cls-7{fill:#fc6c4c;}.cls-8{fill:#af1819;}.cls-9{opacity:0.85;mix-blend-mode:multiply;}.cls-10{fill:url(#New_Gradient_Swatch_1);}.cls-11{opacity:0.81;mix-blend-mode:overlay;}.cls-12,.cls-13{fill:none;stroke:#fff;stroke-width:0.75px;}.cls-12{stroke-miterlimit:10;}.cls-14{fill:#6be7ba;opacity:0.1;}</style><linearGradient id="New_Gradient_Swatch_1" x1="683" y1="492.5" x2="683" y2="0.5" gradientUnits="userSpaceOnUse"><stop offset="0.08" stop-color="#1a2133"/><stop offset="0.13" stop-color="#1d263a"/><stop offset="0.2" stop-color="#27334e"/><stop offset="0.28" stop-color="#36496f"/><stop offset="0.29" stop-color="#384c74"/><stop offset="0.54" stop-color="#334866"/><stop offset="0.58" stop-color="#2a3d5d"/><stop offset="0.66" stop-color="#1f2f52"/><stop offset="0.73" stop-color="#1b2a4e"/></linearGradient></defs><g class="cls-1"><g id="Layer_3" data-name="Layer 3"><rect class="cls-2" x="0.9" y="0.2" width="9" height="492.64"/><rect class="cls-2" x="10" y="0.2" width="9" height="492.64"/><rect class="cls-2" x="19.1" y="0.2" width="9" height="492.64"/><rect class="cls-2" x="28.2" y="0.2" width="9" height="492.64"/><rect class="cls-3" x="37.3" y="0.2" width="9" height="492.64"/><rect class="cls-2" x="46.4" y="0.2" width="9" height="492.64"/><rect class="cls-2" x="55.6" y="0.2" width="9" height="492.64"/><rect class="cls-3" x="64.7" y="0.2" width="9" height="492.64"/><rect class="cls-2" x="73.8" y="0.2" width="9" height="492.64"/><rect class="cls-4" x="82.9" y="0.2" width="9" height="492.64"/><rect class="cls-2" x="92" y="0.2" width="9" height="492.64"/><rect class="cls-2" x="101.1" y="0.2" width="9" height="492.64"/><rect class="cls-3" x="110.2" y="0.2" width="9" height="492.64"/><rect class="cls-3" x="119.3" y="0.2" width="9" height="492.64"/><rect class="cls-2" x="128.4" y="0.2" width="9" height="492.64"/><rect class="cls-3" x="137.5" y="0.2" width="9" height="492.64"/><rect class="cls-2" x="146.6" y="0.2" width="9" height="492.64"/><rect class="cls-2" x="155.7" y="0.2" width="9" height="492.64"/><rect class="cls-2" x="164.9" y="0.2" width="9" height="492.64"/><rect class="cls-2" x="174" y="0.2" width="9" height="492.64"/><rect class="cls-2" x="183.1" y="0.2" width="9" height="492.64"/><rect class="cls-3" x="192.2" y="0.2" width="9" height="492.64"/><rect class="cls-3" x="201.3" y="0.2" width="9" height="492.64"/><rect class="cls-2" x="210.4" y="0.2" width="9" height="492.64"/><rect class="cls-2" x="219.5" y="0.2" width="9" height="492.64"/><rect class="cls-2" x="228.6" y="0.2" width="9" height="492.64"/><rect class="cls-4" x="237.7" y="0.2" width="9" height="492.64"/><rect class="cls-2" x="246.8" y="0.2" width="9" height="492.64"/><rect class="cls-2" x="255.9" y="0.2" width="9" height="492.64"/><rect class="cls-2" x="265" y="0.2" width="9" height="492.64"/><rect class="cls-2" x="274.1" y="0.2" width="9" height="492.64"/><rect class="cls-2" x="283.2" y="0.2" width="9" height="492.64"/><rect class="cls-3" x="292.3" y="0.2" width="9" height="492.64"/><rect class="cls-2" x="301.4" y="0.2" width="9" height="492.64"/><rect class="cls-4" x="310.6" y="0.2" width="9" height="492.64"/><rect class="cls-2" x="319.7" y="0.2" width="9" height="492.64"/><rect class="cls-4" x="328.8" y="0.2" width="9" height="492.64"/><rect class="cls-4" x="337.9" y="0.2" width="9" height="492.64"/><rect class="cls-4" x="347" y="0.2" width="9" height="492.64"/><rect class="cls-2" x="356.1" y="0.2" width="9" height="492.64"/><rect class="cls-4" x="365.2" y="0.2" width="9" height="492.64"/><rect class="cls-4" x="374.3" y="0.2" width="9" height="492.64"/><rect class="cls-4" x="383.4" y="0.2" width="9" height="492.64"/><rect class="cls-2" x="392.5" y="0.2" width="9" height="492.64"/><rect class="cls-2" x="401.6" y="0.2" width="9" height="492.64"/><rect class="cls-2" x="410.7" y="0.2" width="9" height="492.64"/><rect class="cls-4" x="419.9" y="0.2" width="9" height="492.64"/><rect class="cls-4" x="429" y="0.2" width="9" height="492.64"/><rect class="cls-3" x="438.1" y="0.2" width="9" height="492.64"/><rect class="cls-2" x="447.2" y="0.2" width="9" height="492.64"/><rect class="cls-2" x="456.3" y="0.2" width="9" height="492.64"/><rect class="cls-4" x="465.4" y="0.2" width="9" height="492.64"/><rect class="cls-4" x="474.5" y="0.2" width="9" height="492.64"/><rect class="cls-4" x="483.6" y="0.2" width="9" height="492.64"/><rect class="cls-2" x="492.7" y="0.2" width="9" height="492.64"/><rect class="cls-2" x="501.8" y="0.2" width="9" height="492.64"/><rect class="cls-2" x="510.9" y="0.2" width="9" height="492.64"/><rect class="cls-5" x="520" y="0.2" width="9" height="492.64"/><rect class="cls-4" x="529.1" y="0.2" width="9" height="492.64"/><rect class="cls-4" x="538.2" y="0.2" width="9" height="492.64"/><rect class="cls-2" x="547.3" y="0.2" width="9" height="492.64"/><rect class="cls-4" x="556.4" y="0.2" width="9" height="492.64"/><rect class="cls-4" x="565.6" y="0.2" width="9" height="492.64"/><rect class="cls-4" x="574.7" y="0.2" width="9" height="492.64"/><rect class="cls-4" x="583.8" y="0.2" width="9" height="492.64"/><rect class="cls-2" x="592.9" y="0.2" width="9" height="492.64"/><rect class="cls-4" x="602" y="0.2" width="9" height="492.64"/><rect class="cls-4" x="611.1" y="0.2" width="9" height="492.64"/><rect class="cls-2" x="620.2" y="0.2" width="9" height="492.64"/><rect class="cls-4" x="629.3" y="0.2" width="9" height="492.64"/><rect class="cls-5" x="638.4" y="0.2" width="9" height="492.64"/><rect class="cls-4" x="647.5" y="0.2" width="9" height="492.64"/><rect class="cls-6" x="656.6" y="0.2" width="9" height="492.64"/><rect class="cls-5" x="665.7" y="0.2" width="9" height="492.64"/><rect class="cls-4" x="674.9" y="0.2" width="9" height="492.64"/><rect class="cls-5" x="684" y="0.2" width="9" height="492.64"/><rect class="cls-5" x="693.1" y="0.2" width="9" height="492.64"/><rect class="cls-4" x="702.2" y="0.2" width="9" height="492.64"/><rect class="cls-5" x="711.3" y="0.2" width="9" height="492.64"/><rect class="cls-5" x="720.4" y="0.2" width="9" height="492.64"/><rect class="cls-4" x="729.5" y="0.2" width="9" height="492.64"/><rect class="cls-4" x="738.6" y="0.2" width="9" height="492.64"/><rect class="cls-5" x="747.7" y="0.2" width="9" height="492.64"/><rect class="cls-5" x="756.8" y="0.2" width="9" height="492.64"/><rect class="cls-6" x="765.9" y="0.2" width="9" height="492.64"/><rect class="cls-5" x="775" y="0.2" width="9" height="492.64"/><rect class="cls-4" x="784.1" y="0.2" width="9" height="492.64"/><rect class="cls-5" x="793.2" y="0.2" width="9" height="492.64"/><rect class="cls-5" x="802.3" y="0.2" width="9" height="492.64"/><rect class="cls-5" x="811.4" y="0.2" width="9" height="492.64"/><rect class="cls-4" x="820.6" y="0.2" width="9" height="492.64"/><rect class="cls-5" x="829.7" y="0.2" width="9" height="492.64"/><rect class="cls-5" x="838.8" y="0.2" width="9" height="492.64"/><rect class="cls-6" x="847.9" y="0.2" width="9" height="492.64"/><rect class="cls-5" x="857" y="0.2" width="9" height="492.64"/><rect class="cls-5" x="866.1" y="0.2" width="9" height="492.64"/><rect class="cls-5" x="875.2" y="0.2" width="9" height="492.64"/><rect class="cls-6" x="884.3" y="0.2" width="9" height="492.64"/><rect class="cls-6" x="893.4" y="0.2" width="9" height="492.64"/><rect class="cls-5" x="902.5" y="0.2" width="9" height="492.64"/><rect class="cls-5" x="911.6" y="0.2" width="9" height="492.64"/><rect class="cls-5" x="920.7" y="0.2" width="9" height="492.64"/><rect class="cls-6" x="929.9" y="0.2" width="9" height="492.64"/><rect class="cls-6" x="939" y="0.2" width="9" height="492.64"/><rect class="cls-6" x="948.1" y="0.2" width="9" height="492.64"/><rect class="cls-6" x="957.2" y="0.2" width="9" height="492.64"/><rect class="cls-7" x="966.3" y="0.2" width="9" height="492.64"/><rect class="cls-6" x="975.4" y="0.2" width="9" height="492.64"/><rect class="cls-7" x="984.5" y="0.2" width="9" height="492.64"/><rect class="cls-6" x="993.6" y="0.2" width="9" height="492.64"/><rect class="cls-7" x="1002.7" y="0.2" width="9" height="492.64"/><rect class="cls-6" x="1011.8" y="0.2" width="9" height="492.64"/><rect class="cls-7" x="1020.9" y="0.2" width="9" height="492.64"/><rect class="cls-7" x="1030" y="0.2" width="9" height="492.64"/><rect class="cls-7" x="1039.1" y="0.2" width="9" height="492.64"/><rect class="cls-6" x="1048.2" y="0.2" width="9" height="492.64"/><rect class="cls-7" x="1057.3" y="0.2" width="9" height="492.64"/><rect class="cls-7" x="1066.4" y="0.2" width="9" height="492.64"/><rect class="cls-7" x="1075.6" y="0.2" width="9" height="492.64"/><rect class="cls-7" x="1084.7" y="0.2" width="9" height="492.64"/><rect class="cls-7" x="1093.8" y="0.2" width="9" height="492.64"/><rect class="cls-6" x="1102.9" y="0.2" width="9" height="492.64"/><rect class="cls-8" x="1112" y="0.2" width="9" height="492.64"/><rect class="cls-6" x="1121.1" y="0.2" width="9" height="492.64"/><rect class="cls-7" x="1130.2" y="0.2" width="9" height="492.64"/><rect class="cls-7" x="1139.3" y="0.2" width="9" height="492.64"/><rect class="cls-7" x="1148.4" y="0.2" width="9" height="492.64"/><rect class="cls-7" x="1157.5" y="0.2" width="9" height="492.64"/><rect class="cls-7" x="1166.6" y="0.2" width="9" height="492.64"/><rect class="cls-8" x="1175.7" y="0.2" width="9" height="492.64"/><rect class="cls-8" x="1184.8" y="0.2" width="9" height="492.64"/><rect class="cls-7" x="1194" y="0.2" width="9" height="492.64"/><rect class="cls-7" x="1203.1" y="0.2" width="9" height="492.64"/><rect class="cls-8" x="1212.2" y="0.2" width="9" height="492.64"/><rect class="cls-8" x="1221.3" y="0.2" width="9" height="492.64"/><rect class="cls-7" x="1230.4" y="0.2" width="9" height="492.64"/><rect class="cls-7" x="1239.5" y="0.2" width="9" height="492.64"/><rect class="cls-7" x="1248.6" y="0.2" width="9" height="492.64"/><rect class="cls-8" x="1257.7" y="0.2" width="9" height="492.64"/><rect class="cls-7" x="1266.8" y="0.2" width="9" height="492.64"/><rect class="cls-7" x="1275.9" y="0.2" width="9" height="492.64"/><rect class="cls-7" x="1285" y="0.2" width="9" height="492.64"/><rect class="cls-7" x="1294.1" y="0.2" width="9" height="492.64"/><rect class="cls-8" x="1303.2" y="0.2" width="9" height="492.64"/><rect class="cls-8" x="1312.3" y="0.2" width="9" height="492.64"/><rect class="cls-8" x="1321.4" y="0.2" width="9" height="492.64"/><rect class="cls-8" x="1330.6" y="0.2" width="9" height="492.64"/><rect class="cls-7" x="1339.7" y="0.2" width="9" height="492.64"/><rect class="cls-8" x="1348.8" y="0.2" width="9" height="492.64"/><rect class="cls-7" x="1357.9" y="0.2" width="9" height="492.64"/><g class="cls-9"><rect class="cls-10" x="0.5" y="0.5" width="1365" height="492"/><path d="M1365,1V492H1V1H1365m1-1H0V493H1366V0Z"/></g><g id="lines" class="cls-11"><path class="cls-12" d="M1,324l9.1,4,9.1,23,9.1-5,9.1,34,9.1-22,9-5,9.2,14,9-55,9.1-21,9.1,37,9.1,16,9.1,20,9.1,43,9.1-50,9.1,17,9.1-67,9.1,35,9.1,8,9.1-14,9.1-20,9.1,47h9l9.2-16,9-23,9.1,20,9.1-74,9.1,73,9.1,5,9.1-23,9.1,15,9.1-39,9.1,93,9.1-44,9.1-54,9.1,50,9.1-48,9.1,4,9-29,9.1,53,9.1-43,9.1,13,9.1-8,9.1,41,9.1-12,9.1-9,9.1-35,9.1-10,9.1,103,9.1-36,9.1-9,9.1-36,9.1,7,9,9,9.1,5,9.1,8"/><path class="cls-13" d="M1,334l9.1-37,9.1,39,9.1-16,9.1,46,9.1-9,9-43,9.2-3,9,16,9.1,16,9.1-36,9.1-2,9.1,55,9.1,11,9.1-35,9.1-28,9.1-40,9.1,101,9.1-35,9.1,17,9.1-33,9.1,19,9-64,9.2,22,9-7,9.1,29,9.1,32,9.1-25,9.1,6,9.1,55,9.1-54,9.1,43,9.1-41,9.1,15,9.1,9,9.1,9,9.1-103,9.1,75,9-10,9.1,37,9.1-14,9.1-42,9.1,54,9.1-43,9.1-15,9.1,40,9.1,38,9.1-86h9.1l9.1,1,9.1,74,9.1-64,9.1-41,9,23,9.1,18,9.1,3,9.1-54,9.1-5,9.1,41,9.1,6,9.1-25,9.1,38,9.1-45,9.1,46,9.1-23,9.1,13,9.1-23,9.1,24,9.1-10,9-24,9.1,4,9.1-25,9.1,17,9.1,14,9.1-12,9.1-32,9.1-6,9.1-14,9.1,92,9.1-10,9.1-25h9.1l9,6,9.2,10,9-91,9.1,62,9.1-32,9.1,58,9.1-28,9.1-42,9.1,26,9.1,2,9.1,5,9.1-46,9.1,6,9.1,55H874l9.1-22,9-37,9.2,40,9-28,9.1,1,9.1,44,9.1-13,9.1-60,9.1,62,9.1-19,9.1-30,9.1-13,9.1-26,9.1,100,9.1-17,9.1-53,9,35,9.1-75,9.1,54,9.1-50,9.1,28,9.1,45,9.1-38,9.1,13,9.1-32,9.1,15,9.1,55,9.1-69,9.1,36,9.1-14,9.1,47,9.1-46,9-10,9.1,32,9.1-108,9.1,85,9.1-40,9.1,17,9.1-46,9.1,21,9.1,17,9.1,78,9.1-28,9.1-43,9.1-5,9.1,23,9.1,28,9.1-99,9,62,9.1,36,9.1-47,9.1,22,9.1,69"/><path class="cls-13" d="M1,353l9.1,6,9.1-64,9.1,72,9.1-34,9.1,12,9-40,9.2,59,9-1,9.1-21,9.1-41,9.1,64,9.1-30,9.1,8,9.1,42,9.1-27,9.1-27,9.1,19,9.1-5,9.1-24,9.1,19,9.1-13,9,24,9.2,11,9,19,9.1-52,9.1-6,9.1,19,9.1-33,9.1,42,9.1-77,9.1,63,9.1,11,9.1,3,9.1-33,9.1,56,9.1-99,9.1,30,9,18,9.1,17,9.1-67,9.1,47,9.1-39L392,383l9.1-61,9.1-38,9.1,20,9.1-16,9.1-6,9.1,21,9.1,11,9.1-22,9.1,23,9,22,9.1-62,9.1-12,9.1,12,9.1,9,9.1-10,9.1,37,9.1-67,9.1,36,9.1-11,9.1-25,9.1,20,9.1,50,9.1-19,9.1-11,9.1,39,9-50,9.1,63,9.1-18,9.1-38,9.1-11,9.1,3,9.1,23,9.1-14,9.1-23,9.1,42,9.1-28,9.1-20,9.1,11,9,29,9.2-61,9,28,9.1,26,9.1-10,9.1-37,9.1,66,9.1-37,9.1-30,9.1,54,9.1-50,9.1-20,9.1,55,9.1,12H874l9.1-72,9,8,9.2,29,9-34,9.1,21,9.1-23,9.1,39,9.1-55,9.1,62,9.1,1,9.1,3,9.1-40,9.1,52,9.1-56,9.1,46,9.1-58,9,25,9.1-21,9.1,49,9.1-22,9.1,19,9.1-61,9.1,4,9.1,12,9.1,6,9.1-30,9.1,1,9.1,25,9.1,37,9.1-73,9.1,59,9.1-10,9-17,9.1,28,9.1,2,9.1-59,9.1,35,9.1-8,9.1,27,9.1-59,9.1,49,9.1,19,9.1-12,9.1,14,9.1-38,9.1-8,9.1,20,9.1-28,9-4,9.1,31,9.1,29,9.1-46,9.1-3,9.1,15"/><path class="cls-13" d="M1,309l9.1,53,9.1-21,9.1,7,9.1,28,9.1-18,9,1h9.2l9-5,9.1-35,9.1,17,9.1,27,9.1-62,9.1,11,9.1,37,9.1,53,9.1-56,9.1-44,9.1,47,9.1-14,9.1,25,9.1-3,9-24,9.2,16,9-37,9.1,17,9.1-12,9.1,30,9.1-28,9.1,13,9.1-34h9.1l9.1,32,9.1,34,9.1-36,9.1,2,9.1,1h9.1l9-4,9.1,14,9.1-21,9.1-20,9.1,54,9.1-67,9.1,58,9.1-43,9.1-5,9.1,32,9.1-61,9.1,12,9.1,23,9.1-14,9.1-15,9,37,9.1-5,9.1-28,9.1,46,9.1-35,9.1-12,9.1,6,9.1-25,9.1,12,9.1,3,9.1-22,9.1,87,9.1-41,9.1-10,9.1-1,9.1-53,9,39,9.1-26,9.1-9,9.1,49,9.1-27,9.1-21,9.1,18,9.1-39,9.1,60,9.1-23,9.1,1,9.1-17,9.1-9,9,4,9.2,16,9-20,9.1,41,9.1-69,9.1,23,9.1,9,9.1-8,9.1,26,9.1-15,9.1,11,9.1-26,9.1,33,9.1-59,9.1,45,9.1,1,9-25,9.2,30,9-14,9.1,1,9.1,20,9.1-63,9.1,3,9.1-7,9.1,19,9.1,40,9.1-55,9.1,19,9.1,16,9.1-37,9.1,12,9-1,9.1-25,9.1,39,9.1,12h9.1l9.1-31,9.1,14,9.1-7,9.1-20,9.1,11,9.1,20,9.1-56,9.1,35,9.1-1,9.1,15,9.1-10,9-7,9.1-2,9.1,37,9.1-73,9.1,81,9.1-27,9.1-30,9.1,27,9.1-8,9.1-6,9.1,17,9.1-22,9.1,54,9.1-73,9.1,69,9.1,1,9-43,9.1,13,9.1-7,9.1,15,9.1-28,9.1-4"/><polyline class="cls-13" points="1 341 10.1 295 19.2 336 28.3 298 37.4 327 46.5 284 55.5 339 64.7 277 73.7 343 82.8 333 91.9 345 101 350 110.1 263 119.2 283 128.3 281 137.4 373 146.5 380 155.6 336 164.7 294 173.8 351 182.9 325 192 381 201 340 210.2 328 219.2 341 228.3 355 237.4 376 246.5 349 255.6 331 264.7 352 273.8 350 282.9 374 292 354 301.1 351 310.2 290 319.3 357 328.4 325 337.4 358 346.5 306 355.6 297 364.7 326 373.8 321 382.9 325 392 386 401.1 308 410.2 320 419.3 308 428.4 312 437.5 303 446.6 329 455.7 300 464.8 273 473.9 307 482.9 307 492 343 501.1 319 510.2 284 519.3 233 528.4 261 537.5 302 546.6 321 555.7 296 564.8 256 573.9 280 583 295 592.1 301 601.2 306 610.3 254 619.4 275 628.4 270 637.5 336 646.6 338 655.7 250 664.8 246 673.9 252 683 267 692.1 272 701.2 322 710.3 275 719.4 250 728.5 257 737.6 264 746.6 290 755.8 302 764.8 243 773.9 211 783 274 792.1 253 801.2 282 810.3 227 819.4 255 828.5 211 837.6 208 846.7 293 855.8 281 864.9 207 874 228 883.1 205 892.1 281 901.3 273 910.3 224 919.4 242 928.5 210 937.6 210 946.7 262 955.8 236 964.9 218 974 224 983.1 220 992.2 221 1001.3 299 1010.4 209 1019.5 217 1028.5 232 1037.6 201 1046.7 249 1055.8 254 1064.9 199 1074 243 1083.1 232 1092.2 212 1101.3 231 1110.4 178 1119.5 259 1128.6 261 1137.7 203 1146.8 193 1155.9 163 1165 208 1174 190 1183.1 243 1192.2 155 1201.3 191 1210.4 156 1219.5 263 1228.6 198 1237.7 145 1246.8 235 1255.9 176 1265 248 1274.1 221 1283.2 225 1292.3 201 1301.4 192 1310.5 181 1319.5 175 1328.6 159 1337.7 186 1346.8 206 1355.9 203"/></g><path id="middle" class="cls-14" d="M0,277.6l9.1,3.6,9.1-1.2,9.1-67.5,9.1,48.2,9.1,8.4,9-3.6,9.2-4.8,9,10.9,9.1-33.8L90.9,274l9.1-12.1,9.1-18.1,9.1,2.4,9.1,19.3,9.1-21.7,9.1-8.4,9.1,45.8,9.1-61.5,9.1,54.3,9.1-7.3L191,274l9-18.1,9.2,7.2,9-42.2,9.1,78.4,9.1-42.2,9.1-2.4,9.1,2.4,9.1,6,9.1-7.2,9.1,2.4,9.1,1.2,9.1-3.6,9.1,8.4,9.1-13.2,9.1-7.3,9.1-37.4,9,42.2,9.1-9.6,9.1,10.9,9.1,12,9.1,3.6,9.1-15.6,9.1,26.5,9.1-27.8,9.1-13.2,9.1,26.5,9.1-56.7,9.1,4.9,9.1,26.5,9.1-4.8,9.1,15.6,9-19.3,9.1,7.3,9.1,8.4,9.1-22.9,9.1-13.3,9.1-14.4,9.1-8.5,9.1,33.8,9.1-24.1,9.1,4.8,9.1,21.7,9.1-2.4,9.1-51.9,9.1,41,9.1,10.9,9.1-21.7,9-26.5,9.1-9.7,9.1,44.6,9.1-19.3,9.1-77.1,9.1,91.6L682,192l9.1-41,9.1,36.1,9.1,3.7,9.1-1.2,9.1,7.2h9.1l9-33.8,9.2,24.1,9-21.7,9.1,15.7,9.1-12,9.1-43.5,9.1,25.4,9.1,32.5,9.1,2.4,9.1-27.7,9.1,3.6,9.1,3.6,9.1-19.3,9.1,15.7,9.1-15.7,9.1-13.2,9,18.1,9.2-1.2,9-3.7,9.1-8.4,9.1-37.4,9.1,48.3,9.1-21.7,9.1-13.3,9.1,27.7L973,95.5,982.1,34l9.1,77.2,9.1-3.6,9.1-56.7,9.1,27.7,9-3.6,9.1-14.5,9.1,68.8,9.1-72.4,9.1,66.3,9.1-2.4,9.1-28.9,9.1,39.8,9.1-4.8,9.1-37.4,9.1,22.9,9.1-9.7,9.1-20.5,9.1,24.2,9.1,2.4,9.1,18.1,9-12.1,9.1-15.7,9.1-38.6,9.1,41,9.1,6.1,9.1-14.5,9.1-13.3,9.1,21.7,9.1-1.2,9.1,20.5,9.1-50.6,9.1,63.9,9.1-43.4,9.1,8.4,9.1,15.7,9.1-44.6,9,18.1,9.1,9.6,9.1-28.9,9.1,43.4,9.1-8.5,9.1-14.4V292.1l-9.1-19.3-9.1,32.5-9.1-60.3-9.1,26.6-9.1,39.8-9-13.3-9.1-18.1-9.1-6-9.1,9.6-9.1-16.9-9.1,2.4-9.1,1.3-9.1,9.6-9.1,4.8-9.1,2.4-9.1-30.1-9.1,30.1-9.1-7.2-9.1-8.4-9.1,14.4-9.1,7.3-9-30.2-9.1-1.2-9.1,15.7-9.1,15.7-9.1-7.3-9.1-6-9.1,53.1-9.1-73.6-9.1,37.4-9.1-10.9-9.1,6.1-9.1,54.2-9.1-91.6-9.1,33.7-9.1,8.5-9.1,55.5-9-83.3-9.1,23-9.1,36.1-9.1-65.1-9.1,1.2L973,275.2l-9.1,38.6-9.1-16.9-9.1,2.4-9.1,6-9.1-21.7-9.1-9.6-9.1,49.4-9-26.5-9.2-14.5-9,53.1L873,305.3l-9.1-16.9-9.1,29L845.7,280l-9.1,21.7-9.1,53.1-9.1-37.4-9.1-10.9-9.1-8.4-9.1-7.2L782,322.2l-9.1,2.4-9.1,22.9-9-19.3-9.2-33.7-9,13.2-9.1,36.2-9.1-8.4-9.1-4.9-9.1-6-9.1,22.9-9.1-7.2-9.1,14.5-9.1-9.7-9.1-8.4-9.1-2.4-9.1,6-9.1-32.6-9,20.5-9.1,21.7-9.1-14.4-9.1-9.7L582,342.7l-9.1,22.9-9.1-47-9.1,10.8-9.1,42.2-9.1-21.7-9.1,37.4-9.1-20.5-9.1-1.2-9.1,7.3-9.1,8.4-9.1-27.7h-9l-9.1,20.5-9.1,1.2-9.1-15.7-9.1-14.5-9.1,20.5-9.1,22.9L409.2,409l-9.1-37.4L391,417.5l-9.1-42.2-9.1-6.1-9.1-19.3-9.1,32.6-9.1-10.9-9,10.9-9.1,4.8-9.1-9.6-9.1,28.9-9.1,3.6L291,382.5l-9.1-4.8-9.1-1.2-9.1,44.6-9.1-41-9.1-8.5-9.1,19.3-9.1,1.2-9.1-6-9,2.4-9.2-3.6-9,25.3L181.9,444l-9.1-49.4-9.1,19.3-9.1-6.1-9.1-8.4-9.1,12L127.3,397l-9.1-18.1-9.1,3.6-9.1,7.2-9.1,18.1-9.1-27.7-9.1,25.3-9-21.7-9.2,1.2-9,4.8H36.4l-9.1-9.6-9.1-4.8-9.1,6H0Z"/><path id="highest" class="cls-14" d="M1,326.6l9.1,3.6,9.1-1.2,9.1-67.5,9.1,48.2,9.1,8.4,9-3.6,9.2-4.8,9,10.9,9.1-33.8L91.9,323l9.1-12.1,9.1-18.1,9.1,2.4,9.1,19.3,9.1-21.7,9.1-8.4,9.1,45.8,9.1-61.5,9.1,54.3,9.1-7.3L192,323l9-18.1,9.2,7.2,9-42.2,9.1,78.4,9.1-42.2,9.1-2.4,9.1,2.4,9.1,6,9.1-7.2,9.1,2.4,9.1,1.2,9.1-3.6,9.1,8.4,9.1-13.2,9.1-7.3,9.1-37.4,9,42.2,9.1-9.6,9.1,10.9,9.1,12,9.1,3.6,9.1-15.6,9.1,26.5,9.1-27.8,9.1-13.2,9.1,26.5,9.1-56.7,9.1,4.9,9.1,26.5,9.1-4.8,9.1,15.6,9-19.3,9.1,7.3,9.1,8.4,9.1-22.9,9.1-13.3,9.1-14.4,9.1-8.5,9.1,33.8,9.1-24.1,9.1,4.8,9.1,21.7,9.1-2.4,9.1-51.9,9.1,41,9.1,10.9,9.1-21.7,9-26.5,9.1-9.7,9.1,44.6,9.1-19.3,9.1-77.1,9.1,91.6L683,241l9.1-41,9.1,36.1,9.1,3.7,9.1-1.2,9.1,7.2h9.1l9-33.8,9.2,24.1,9-21.7,9.1,15.7,9.1-12,9.1-43.5,9.1,25.4,9.1,32.5,9.1,2.4,9.1-27.7,9.1,3.6,9.1,3.6,9.1-19.3,9.1,15.7,9.1-15.7,9.1-13.2,9,18.1,9.2-1.2,9-3.7,9.1-8.4,9.1-37.4,9.1,48.3,9.1-21.7,9.1-13.3,9.1,27.7,9.1-45.8L983.1,83l9.1,77.2,9.1-3.6,9.1-56.7,9.1,27.7,9-3.6,9.1-14.5,9.1,68.8,9.1-72.4,9.1,66.3,9.1-2.4,9.1-28.9,9.1,39.8,9.1-4.8,9.1-37.4,9.1,22.9,9.1-9.7,9.1-20.5,9.1,24.2,9.1,2.4,9.1,18.1,9-12.1,9.1-15.7,9.1-38.6,9.1,41,9.1,6.1,9.1-14.5,9.1-13.3,9.1,21.7,9.1-1.2,9.1,20.5,9.1-50.6,9.1,63.9,9.1-43.4,9.1,8.4,9.1,15.7,9.1-44.6,9,18.1,9.1,9.6,9.1-28.9,9.1,43.4,9.1-8.5,9.1-14.4V341.1l-9.1-19.3-9.1,32.5-9.1-60.3-9.1,26.6-9.1,39.8-9-13.3-9.1-18.1-9.1-6-9.1,9.6-9.1-16.9-9.1,2.4-9.1,1.3-9.1,9.6-9.1,4.8-9.1,2.4-9.1-30.1-9.1,30.1-9.1-7.2-9.1-8.4-9.1,14.4-9.1,7.3-9-30.2-9.1-1.2-9.1,15.7-9.1,15.7-9.1-7.3-9.1-6-9.1,53.1-9.1-73.6-9.1,37.4-9.1-10.9-9.1,6.1-9.1,54.2-9.1-91.6-9.1,33.7-9.1,8.5-9.1,55.5-9-83.3-9.1,23-9.1,36.1-9.1-65.1-9.1,1.2L974,324.2l-9.1,38.6-9.1-16.9-9.1,2.4-9.1,6-9.1-21.7-9.1-9.6-9.1,49.4-9-26.5-9.2-14.5-9,53.1L874,354.3l-9.1-16.9-9.1,29L846.7,329l-9.1,21.7-9.1,53.1-9.1-37.4-9.1-10.9-9.1-8.4-9.1-7.2L783,371.2l-9.1,2.4-9.1,22.9-9-19.3-9.2-33.7-9,13.2-9.1,36.2-9.1-8.4-9.1-4.9-9.1-6-9.1,22.9-9.1-7.2-9.1,14.5-9.1-9.7-9.1-8.4-9.1-2.4-9.1,6-9.1-32.6-9,20.5-9.1,21.7-9.1-14.4-9.1-9.7L583,391.7l-9.1,22.9-9.1-47-9.1,10.8-9.1,42.2-9.1-21.7-9.1,37.4-9.1-20.5-9.1-1.2-9.1,7.3-9.1,8.4-9.1-27.7h-9l-9.1,20.5-9.1,1.2-9.1-15.7-9.1-14.5-9.1,20.5-9.1,22.9L410.2,458l-9.1-37.4L392,466.5l-9.1-42.2-9.1-6.1-9.1-19.3-9.1,32.6-9.1-10.9-9,10.9-9.1,4.8-9.1-9.6-9.1,28.9-9.1,3.6L292,431.5l-9.1-4.8-9.1-1.2-9.1,44.6-9.1-41-9.1-8.5-9.1,19.3-9.1,1.2-9.1-6-9,2.4-9.2-3.6-9,25.3L182.9,493l-9.1-49.4-9.1,19.3-9.1-6.1-9.1-8.4-9.1,12L128.3,446l-9.1-18.1-9.1,3.6-9.1,7.2-9.1,18.1-9.1-27.7-9.1,25.3-9-21.7-9.2,1.2-9,4.8H37.4l-9.1-9.6-9.1-4.8-9.1,6H1Z"/></g></g></svg>