<?xml version="1.0" encoding="utf-8"?>
<!-- Generator: Adobe Illustrator 15.0.0, SVG Export Plug-In  -->
<!DOCTYPE svg PUBLIC "-//W3C//DTD SVG 1.1//EN" "http://www.w3.org/Graphics/SVG/1.1/DTD/svg11.dtd" [
	<!ENTITY ns_flows "http://ns.adobe.com/Flows/1.0/">
]>
<svg version="1.1"
	 xmlns="http://www.w3.org/2000/svg" xmlns:xlink="http://www.w3.org/1999/xlink" xmlns:a="http://ns.adobe.com/AdobeSVGViewerExtensions/3.0/"
	 x="0px" y="0px" width="393px" height="480px" viewBox="-11.945 -36.987 393 480" enable-background="new -11.945 -36.987 393 480"
	 xml:space="preserve">
<defs>
</defs>
<path opacity="0.85" fill="#D7DADC" enable-background="new    " d="M132.553,356.734l0.041-0.113l0.317-0.246l0.313-0.105
	l0.313-0.006l0.457,0.214l0.455,0.067l1.024-0.158l0.568-0.428l0.148-0.293l0.262-0.047l0.162-0.002l0.743,0.283l0.893,0.016
	l0.598-0.197l0.393-0.288l0.031-0.124l0.157-0.146l0.091-0.016l0.424,0.09l-0.033,0.482l-0.138,0.156l-0.097,0.346l0.05,0.15
	l0.079,0.438l0.186,0.244l0.557,0.4l0.519,0.256l0.262,0.019l0.703-0.185l0.195,0.041l-0.044,0.59l0.103,0.57l0.202,0.278
	l0.028,0.267l-0.125,0.081l-0.98,0.027l-0.605,0.222l-1.058,0.724l-0.053,0.086l-0.012,0.081l-0.039,0.053l-1.014,0.236
	l-0.749,0.035l-0.25,0.152l-0.134,0.226l-0.458,0.145l-1.68-1.052l-0.356-0.396l-0.375-0.871l-0.088-0.114l-0.224-0.089l-0.05-0.207
	l-0.323-0.686l-0.531-0.742L132.553,356.734z M149.046,354.398l0.683,0.104l0.167-0.013l0.086-0.078l0.293,0.021l0.572,0.332
	l0.467,0.066l0.495,0.209l0.283,0.248l0.643,0.791l1.748,0.309l0.662-0.139l0.257-0.209l0.289-0.451l-0.161-0.162l-0.015-0.094
	l0.579-0.534l0.712-0.017l0.242-0.146l1.327,0.552l0.319,0.307l-0.041,0.088l-0.384,0.318l-0.231,0.039l-0.13,0.127l-0.213,0.493
	l0.042,0.191l-0.268,0.334l-0.216,0.101l-0.545-0.025l-0.525,0.271l-0.24,0.047l-0.798,0.055l-0.072-0.078l-0.956,0.045
	l-0.543,0.078l-0.985,0.592l-0.606,0.128l-0.196,0.163l-0.085,0.174l-0.235,0.08l-0.78-0.197l-0.268,0.004l-0.279,0.196
	l-1.356-0.177l-1.678-0.344l-1.094-0.455l-0.13-0.236l-0.207-0.664l-0.063-0.354l0.086-0.125l0.208-0.52l0.025-0.376l-0.585-0.599
	l-0.833-0.573l-0.25-0.486l0.154-0.346l0.226-0.008l0.777,0.213l1.212,0.082l1.122,0.519l0.252,0.303l0.391,0.043L149.046,354.398z
	 M124.901,354.703l0.797,0.266l0.782-0.653l0.127-0.124l0.141,0.094l0.274,0.111l0.266,0.016l0.191-0.075l0.607-0.46l0.197-0.221
	l0.011-0.15l-0.055-0.163l0.069-0.067l0.214,0.153l0.25,0.61l-0.193,0.147l0.056,0.247l0.416,0.167l0.568-0.103l0.43,0.32
	l0.207,0.24l0.388,0.578l-0.089,0.104l-0.451,0.097l-1.099-0.074l-0.275,0.092l-0.096,0.125l-0.615-0.174l-1.218-0.61l-0.21-0.007
	l-0.139,0.144l-0.303,0.149l-0.957-0.133l-0.195-0.155l-0.199-0.308L124.901,354.703z M157.602,388.62l0.396-0.189l0.174-0.008
	l0.833,0.538l0.804,0.395l0.617,0.212l0.262,0.203l1.04,1.171l-0.536,0.392l-0.743,0.159l-0.41-0.007l-0.893-0.229l-0.397-0.11
	l-0.211-0.165l-1.026-0.301l-0.688-0.622l-0.023-0.113l-0.013-0.114l-0.166-0.226l-0.293-0.921l0.61,0.335l0.247-0.1l0.278-0.301
	L157.602,388.62z M162.191,356.833l-0.166-0.092l-0.363-0.158l-0.121-0.107l-0.004-0.072l0.263-0.082l0.45,0.045l0.359,0.312
	l0.54,0.097l0.225-0.009l0.843-0.464l0.327,0.04l-0.681,0.231l-0.546,0.351l-0.824-0.115L162.191,356.833z M194.584,405.611
	l-0.411-0.473l-0.562-1.705l-0.357-0.559l-0.461-0.494l-0.49-1.716l-0.332-0.312l-0.383,0.03l0.035-0.716l0.418-0.22l0.686,0.087
	l0.225,0.211l0.166,0.186l-0.002,0.275l0.196,0.542l0.698,1.11l0.395,0.438l1.187,1.624l0.42,0.451l0.229,0.139l0.672,0.475
	l0.506,0.616l2.808,2.454l0.604,0.757l-0.109,0.205l-0.146-0.114l-0.709-0.199l-0.271-0.032l-0.263,0.06l-0.242,0.161l-0.885,0.87
	l-0.141-0.212l0.038-0.063l-0.604-0.6l-1.139-0.925l-0.433-0.123l-0.308-0.307l-0.389-0.741l-0.043-0.123l0.031-0.219l-0.637-0.739
	L194.584,405.611z M195.395,381.273l0.02,0.075l0.511,0.071l0.286-0.098l1.154,0.853l0.803,0.069l1.507,0.758l0.424,0.023
	l0.074,0.096l0.118,0.821l1.479,1.732l0.306,0.256l0.213,0.313l0.26,0.681l-0.067,0.437l-0.422,0.406l-0.306,0.092l-0.653-0.268
	l-0.621-0.44l-0.522-0.205l-1.021-0.031l-1.344,0.104l-0.589-0.138l-0.329-0.186l-0.602-0.792l-0.252-0.55l0.223-0.583l0.146-0.722
	l-0.238-1.133l-0.139-0.338l-0.551-0.191l-0.432,0.081l-0.014-0.117l-0.253-0.247l-0.513-0.169l-0.771,0.054l-0.17-0.041
	l-0.271-0.218l-0.182-0.392l-0.654-0.83l-0.262-0.116l-0.104-0.294l0.023-0.068l0.166,0.008l0.465,0.18l1.496-0.018l0.5,0.266
	L195.395,381.273z M61.125,185.122l-0.536-0.008l-0.298-0.144l-0.093-0.25l0.277-0.313l0.266-0.161l0.321,0.113l0.003,0.001
	l0.084,0.364l-0.015,0.398H61.125L61.125,185.122z M40.538,190.992l0.009-0.182l0.063-0.097l0.262,0.033l0.14,0.153l0.093,0.226
	l-0.134,0.334l-0.167,0.028l-0.198-0.12l-0.088-0.193L40.538,190.992z M62.452,186.328l0.028-0.182l0.273-0.056l0.215,0.369
	l0.137,0.432l-0.144,0.29l-0.327-0.176v-0.23L62.452,186.328z M13.809,23.69l-0.004-0.243l-0.243-1.4l-0.155-0.426l0.071-1.605
	l-0.323-0.276l-0.244-0.7l0.014-0.41l0.146-0.288l-0.073-0.764l-0.4-0.65l-0.023-0.533l-0.107-0.513l-0.454-0.772l-0.087-0.637
	l0.049-0.315l-0.089-1.344l-0.106-0.388l-0.193-0.488l-0.31-0.517l-0.395-0.27l-0.273,0.267l-0.191,0.133l-0.124-0.038l-0.261-0.466
	L8.936,9.938l-0.08-0.059L8.648,9.892L8.442,9.371l0.377-0.387l0.529-1.131l0.427-1.197l0.463-1.812l0.294-2.306l0.057-1.867
	L10.412,0l3.555,0.267l0.022,0.006l0.398,0.02l0.038,0.003l8.522,0.524l6.342,0.137l3.425,0.146l0.517,0.021l0.1,0.007l0.002-0.002
	l4.861,0.299l3.766-0.03l0,0l2.448-0.071l3.517,0.379l1.418,0.065l11.79,0.417L65.437,2.2l3.957,0.105l2.85,0.183l0,0l4.124,0.154
	l0.029,0.001l0.121,0.016h0.041l4.959,0.321l9.421,0.443l0.102,0.005l0.511,0.023l0.444,0.024l3.039,0.165l1.95,0.086l2.339,0.102
	l0.255,0.011l0.149,0.007l1.895,0.052l0.509,0.029l0.635,0.038l0.154-0.009l0.043-0.005l5.795,0.163l3.832,0.226l5.013,0.094
	l5.973,0.129l0.055,0.001l11.79,0.236l1.274,0.023l9.25,0.066l-0.473,35.635L145.317,54.2l0.001,0.249l-0.001,0.068l-0.095,16.107
	l-0.106,7.837v0.026l-0.033,2.541v0.047l-0.107,5.991l-0.022,1.531l-0.006,0.632l-0.007,0.239l-0.271,12.813l0.003,0.037
	l-0.059,2.533l0,0l-0.214,12.212v0.003l-0.146,5.662v0.006l-0.004,0.11v0.022l-0.058,3.729l-0.002,0.152l0.008,2.626l0.007,2.331
	l0.006,1.992l0.011,2.992l3.213,2.958l10.564,9.736l0.021,0.017l0.054,0.05l3.057,2.815l0.005,0.005l1.456,1.322l0,0l4.102,3.785
	l5.782,5.31l1.042,0.954l12.855,11.838l10.849,10.08l13.354,12.273l-0.002,0.001l7.156,6.559l11.527,10.644l11.705,10.809
	l5.809,5.322l18.143,16.729l13.965,12.883l0.13,0.108l6.493,5.996l0.716,0.655l1.688,1.552l5.658,5.177l1.493,1.377l0.013,0.012
	l0.018,0.016l8.749,8.086l0.057,0.043l0.383,0.352l0.09,0.088l0.098,0.088l3.1,2.838l1.183,1.082l1.681,1.557l2.363,2.184
	l0.02,0.008l0.485,0.441l0.035,0.021l8.074,7.438l0.004,0.001l4.429,4.078l0.027,0.024l6.317,5.789l0.155,0.443l0.017,0.252
	l0.087,3.471l-0.173,0.808l0.082,0.618l0.085,0.218l3.054,4.406l3.241,3.139l0.542,1.683l4.434,8.692l2.79,2.074l2.397,1.646
	l0.831,0.489l1.479,1.957l0.335,1.869l-0.06,0.088l-1.102,0.354l-2.088,2.297l-0.609,1.005l-2.374,1.661l-0.311,0.295l-1.567,0.933
	l-0.844,0.413l-0.39-0.051l-0.366,0.088l-0.304,0.303l-0.431,0.684l-0.056,0.386l0.102,1.841l-0.088,0.672l-0.852,1.323
	l-1.237,1.449l-0.578,1.974l-0.1,3.478l0.144,1.423l0.782,2.152l0.462,2.111l-0.062,0.487l-0.798,0.407l-0.17,0.121l-0.217,0.302
	l-0.197,3.873l0.033,0.473l0.179,0.496l0.012,0.016l-0.766,1.66l-1.215,1.671l-0.95,1.735l-0.106,1.017l-1.345,0.858l-1.986,0.896
	l0.87,2.419l1.171,3.579l0.021,3.209l-0.096,1.146l-0.247,0.771l-0.333,0.497l-0.29,1.149l-0.032,0.628l1.271,1.859l1.896,0.744
	l0.646,0.104l0.599-0.05l0.179-0.097l0.222-0.323l0.237-0.065l1.757,0.171l0.251,0.168l0.209,0.142l1.655,2.201l0.34,2.88
	l-0.05,1.16v0.011l-0.999,2.545l-0.02,0.01l-4.15,4.259l0.008,0.042l-1.565-0.166l-0.021-0.001l-0.67-0.075l-0.057-0.016
	l-1.461,0.848l-27.107,3.327l-14.946,1.84l-8.389,1.042l-10.347,1.259l-26.583,3.265l-0.219,0.026l-0.344-1.814l-0.002-0.939
	l-0.152-0.949l-0.107-0.362l-0.771-1.462l-0.338-0.49l-0.427-0.418l-0.464-0.26l-0.141-0.046l-0.594,0.058l-0.392,0.213L241.659,415
	l-0.357,0.093l-0.354-1.341l-0.106-1.14l0.065-0.854l0.099-0.33l-0.111-1.491l-0.234-0.707l-0.738-0.826l-0.057-0.76l0.034-0.152
	l0.261-0.373l0.325,0.104l0.153-0.165l0.16-0.302l0.152-0.656l-0.121-1.131l-0.24-1.361l-0.08-0.362l-0.715-3.187l-0.475-0.972
	l-0.624-1.742l-0.213-0.83l-0.494-1.235l-1.157-1.846l-0.115-0.183l-1.07-1.492l-0.386-0.47l-1.618-2.39l-0.895-1.214l-1.32-1.635
	l-1.541-1.36l-0.877-0.582l-0.879-0.323l-0.445-0.859l-0.873-1.053l-0.509-0.442l0,0l-1.421-0.914l-0.17,0.08l-0.096,0.156
	l0.022,0.113l-0.869-0.276l-0.414-1l-1.276-1.432l-0.861-1.1l-0.594-0.204l-0.47-0.255l-0.95-0.926l-1.326-0.813l-0.834-0.313
	l-0.986-0.25l-0.493-0.633l-0.601-0.409l-1.576-1.079l-1.059-0.962l-1.279-1.511l-0.871-0.819l-0.441-0.186l-0.564-0.411
	l-0.579-0.421l-0.873-0.307l-0.673-0.141l-0.19,0.025l-0.243,0.609l0.147,0.575l0.09,0.823l-0.94,0.025l-1.843,0.589l-0.668-0.143
	l-0.717-0.051l-0.726-0.193l-1.355-0.851l-0.21-0.197l-0.883-0.198l-0.419,0.244l-0.526-0.265l-0.625-1.438l0.181-0.32l0.657-0.804
	l0.384-0.181l0.002-0.001l0.1-0.488l-0.027-1.121l-0.748-1.887l-1.078-2.475l-0.658-1.265l-0.799-1.176l-0.053-0.079l-0.67-0.78
	l-0.602-0.524l-0.849-0.481l-0.938-0.135l-1.23,0.116l-0.219,0.116l-2.105-0.105l-0.254,0.063l-0.142,0.187l-0.964,0.172
	l-0.939-0.146l-0.449,0.026l-1.381,0.466l-0.132,0.088l-0.647,0.805l-0.591-0.559l-0.675-0.598l-0.512-0.294l-1.489-0.221
	l-1.144-0.294l-0.36,0.107l-0.244-0.087l-0.353-0.124l-0.825-0.515l-0.689-0.271l-0.275-0.015l-1.177-0.744l-1.163-0.325
	l-0.665-0.349l-0.347-0.046l-0.416,0.208l-0.73-0.246l-1.05-0.862l-1.039-0.854l-0.519-0.244l-0.291-0.019l-0.186-0.055
	l-0.402-0.688l-0.334-0.621l-0.705-1.652l-0.313-0.938l-0.147-0.807l-0.301-0.617l-0.438-0.354l-0.4,0.093l-0.39-0.131l-0.871-0.659
	l-0.416-0.609l-0.753-0.67l-0.193-0.071l-0.447,0.159l-0.079-0.034l-1.324-1.539l-0.117-0.103l-0.172-0.024l-0.893-0.808
	l-0.416-0.072l-0.199-0.069l-1.154-0.409l-0.937-0.41l-0.797-0.795l-2.047-0.352l-0.788,0.227l-0.349-0.078l-0.829,0.051
	l-0.583,0.151l0.123,0.188l-0.255,0.224l-0.622,0.336l-0.725-0.029l-0.572-0.313l-1.437-0.59l-0.317-0.074l-1.465,0.063
	l-0.646,0.336l-0.721-0.043l-1.817-1.127l-1.113-0.073l-0.549-0.419l-1.281-0.711l-1.096-0.146l-0.424,0.073l-1.354,0.045
	l-0.307-0.074l-0.751-0.367l-0.81-0.164l-1.513,0.111l-1.498-0.031l-0.448,0.103l-0.706,0.018l-0.899-0.053l-0.428-0.106
	l-0.148,0.037l-0.096,0.114l-1.417,0.342l-3.596,0.261l-0.341,0.188l-0.711-0.046l-0.166-1.203l-0.129-0.264l-0.355-0.402
	l-0.719-1.46l-0.469-0.375l-1.994-1.166l-0.965-0.004l-0.133,0.133l-0.376-0.026l-0.532-0.547l-0.27-0.658l0.216-1.023l0.563-1.313
	l0.873-2.519l0.064-0.551l-0.039-0.226l-0.451-0.932l-0.401-0.332l-0.379-0.792l0.545-1.636l0.256-1.008l0.25-1.158v-0.68
	l-0.208-0.381l-0.803-0.617l-0.092-0.605l-0.175-0.311l-0.552-0.015l-0.279-0.135l0.838-3.076l0.34-1.251l0.253-1.32l0.153-1.248
	l0.026-0.742l-0.028-1.037l-0.152-0.967l-0.288-0.7l-0.234-0.364l-0.396-0.253l-0.196,0.056l-0.249-0.052l-0.415-0.345l-0.413-0.471
	l-0.186-0.092l-0.35-0.13l-0.707-0.122l-0.518,0.019l-0.213,0.132l-0.077,0.24l0.02,0.386l-0.156,0.028l-0.646-0.416l-0.242-0.393
	l-0.671-0.336l-1.445-0.888l-0.329-0.099l-0.582-0.856l-0.817-0.995l0.003-0.27l0.289-1.043l0.361-0.713l0.468-1.44l0.178-0.859
	l0.033-0.614l-0.109-1.425l-0.1-0.452l-0.522-1.197l-0.415-0.539l-0.383-0.309l-1.362,0.071l-0.146-0.062l-0.175-0.256l-0.472-0.295
	l-0.236,0.047l-0.958-0.097l-0.759-1.069l-0.943-1.031l-0.238-0.102l-1.425-1.758l-0.812-1.968l-0.257-0.332l-0.346-0.255
	l-0.781-1.313l-0.771-0.358l-0.227,0.1l-1.94-0.75l-0.736-0.463l-0.436-0.336l-0.152-0.68l-0.226-0.332l-0.279-0.227l-0.339-0.518
	l0.005-1.727l-0.301-0.748l-0.248-0.613l-0.474-0.545l-0.353-0.405l-1.074-0.88l-0.632-0.948l-0.208-0.478l-0.478-0.224
	l-0.434-0.313l-0.771-0.844l0.05-0.496l-0.068-0.332l-0.295-0.69l-0.419-2.234l-0.554-1.335l-0.289-0.285l-0.699-0.361l-0.756-0.262
	l-0.553-0.094l-0.17-0.164l-0.52-1.126l0.047-0.147l-0.114-0.502l-0.479-0.322l-0.393-0.703l-0.101-0.527l-0.247-0.658l-1.695-2.313
	l-1.252-1.33l-2.141-1.487l-0.59-0.318l-0.347,0.047l-0.234-0.066l-0.432-0.35l-0.313-0.402l-0.11-0.432l-0.415-0.777l-0.779-0.521
	l-0.457-0.619l-0.195-0.667l0.095-0.994l-0.411-0.799l0.105-0.245l0.056-0.79l-0.031-0.519l-0.079-0.205l-0.294-0.28l-0.092-0.466
	l0.111-0.483l-0.333-1.246l-0.38-0.83l-0.133-0.583l0.099-0.494l0.03-0.418l-0.163-0.242l-0.02-0.444l0.554-0.038l0.101-0.086
	l-0.178-1.539l-0.338-0.297l-0.245-0.061l-0.068,0.155l-0.203-0.026l-0.517-0.408l-0.197-0.32l0.287-0.091l1.049-1.521l0.131-0.695
	l0.078-0.123h0.235l0.198,0.111l1.132,1.151l0.027,0.332l0.08,0.017l0.538-0.119l0.383-0.277l0.645-0.816l0.376-0.641l0.258-0.536
	l0.403-1.118l0.3-1.369l0.1-1.588l0.675-2.348l-0.098-0.496l-0.569-1.494l-0.038-0.088l-0.551-1.283l-1.122-2.337l-0.591-0.839
	l-0.484-0.531l-0.397-0.326l-0.801-0.432l-0.324-0.006l-0.431,0.275l-0.754,0.738H74.9l-0.27-0.216l-0.974-0.289l-0.383,0.093
	l-0.147,0.479l-0.796,0.09l-0.563-0.009l-0.443-0.126l-0.911-0.261l-1.165-0.877l-0.491-0.277l-1.062-1.034l-0.649-0.485
	l-1.514-2.062l-0.265-0.587l-0.793-1.315l-0.27-0.256l-0.439-0.416l-0.265-0.088l-0.316,0.106l-0.258-0.004l-0.225-0.1l-0.056-0.154
	l0.079-0.434l-0.017-0.229l-0.2-0.367l-0.524-0.525l-0.056-0.355l-0.167-0.412l-0.405-0.381l-0.387-0.098l-0.215-0.195l-0.261-0.387
	l-0.033-1.045l-0.052-0.258l-0.223-0.344l-0.099-0.385l0.035-0.31l0.261-0.754l0.475-3.119l0.053-0.979l-0.262-0.695l-0.452-0.801
	l-0.626-1.937l-0.036-1.13l-0.177-0.845l-0.511-0.796l-0.15-0.111l-0.142,0.073l-0.207,0.105l-0.124,0.063l-0.03,0.01l-0.013,0.005
	l-0.231,0.076l-0.021-0.016l-0.162-0.124l-0.551-1.168l-0.07-0.707l0.114-0.332l0.064-0.05l0.048-0.267l-0.109-1.058l0.056-0.637
	l0.556-0.375l0.179-0.544l0.147-1.401l-0.02-1.87l-0.155-0.963l-0.112-0.692l-0.057-1.109l-0.05-0.985l-0.068-0.43l0.326-0.317
	l0.423,0.033l0.247-0.109l0.297-0.879l0.261,0.105l0.216,0.186l1.302-0.229l0.632,0.004l0.308,0.268l0.413,0.673l0.231,2.467
	l0.192,0.124l0.086-0.112l0.075,0.017l0.289,0.236l-0.194,0.632l-0.292-0.124l-0.731,0.38l-0.063,0.033l0.143,1.261l0.428,0.759
	l-0.061,0.431l-0.082,0.083l-0.328,0.074l0.027,0.478l0.686,0.531l0.33,0.474l-0.12,0.197l-0.397-0.159l-0.102,0.025l-0.192,0.354
	l0.605,0.6l1.453,0.126l0.073,0.161l-0.017,0.158l0.322,0.373l1.474,0.169l0.359,0.302l0.245,0.37l0.051,0.046l0.216,0.195
	l0.372,0.335l0.361,0.326l0.603,0.079l0.033,0.65l0.879,0.839l0.433,0.145l0.209-0.057l0.333-0.219l0.307,0.198l0.106,0.163
	l0.406-0.221l0.167-0.091l0.01-0.938l-0.522-1.417l-0.176-0.107l-0.116-0.206l-0.213-0.642l-0.08-0.292l0.075-0.545l-0.023-0.29
	l-0.172-1.478l-0.305-1.208l-0.255-0.37l-0.273-0.183l-0.606-0.584l-0.216-0.227l-0.333-0.053l-0.257-0.312l-0.834-0.752
	l-0.291-0.616l-0.061-0.176l0.037-0.236l0.172-0.109l0.253-0.109l0.084-0.149l-0.368-0.343l-0.348-0.165l-0.382-0.132l-0.363-0.106
	l-0.267-0.052l-0.347-0.198l-0.49-0.213l-0.343-0.195l-0.055-0.031l-0.002-0.098L64,187.729l-0.124-0.158l-0.004-0.005l0.083-0.444
	l0.368-0.578l0.207-0.151l0.392-0.014l0.083-0.112l0.118-0.775l-0.27-1.164L64.9,183.5l-0.104-0.191l-0.008-0.009l-0.335-0.393
	l-0.363-0.144l-0.77-0.028l-0.186,0.195l-0.179,0.008l-0.377-0.072l-0.24-0.139l-0.108-0.091l-0.024-0.549l-0.151-0.211
	l-0.209-0.065l-0.409-0.405l-0.114-0.28l-0.4-0.88l0.015-0.1l0.486,0.12l0.118,0.12l0.11,0.134l0.289,0.079l1.135-0.934l0.212-0.513
	l-0.03-0.194l-0.127-0.185l-0.051-0.42l0.041-0.2l0.147-0.067l0.135,0.191l0.65,0.3l0.281-0.062l0.38-0.318l0.19-0.022l0.497,0.134
	l0.609-0.497l0.737-0.94l0.011-0.302l-0.116-0.383l-0.192-0.638l-0.32-0.387l-0.609-1.004l-0.417-0.462l-1.713-1.218l-1.008-0.413
	l-0.241-0.038H62.14l-0.235,0.626l-1.044,0.812l-0.368,0.015l-0.151-0.121l-1.007,0.134l-0.194,0.122l-0.029,0.099l-0.021,0.073
	l0.025,0.492l0.099,0.307l0.069,0.811l-0.315,0.666l-0.286,1.057l0.034,0.564l0.104,0.191l0.433,0.349l0.627,0.212l0.322,0.33
	l0.143,0.352l-0.006,0.159l-0.289,0.249l-0.196-0.123l-0.322-0.027l-0.594,0.641l-0.059,0.084l-0.01,0.245l0.071,0.464l0.24,0.154
	l0.038,0.174l-0.229,0.165l-0.465-0.09l-0.127,0.11l-0.013,0.346l0.311,0.315l0.246,0.009l0.273,0.155l0.198,0.368l-0.024,0.345
	l0.454,0.393l0.345,0.042l0.296,0.43l0.028,0.131l-0.418,0.417l-0.417,0.085l-0.403-0.261l-0.225,0.035l-0.097,0.198l0.002,0.216
	l0.171,1.38l0.001,0.014l-0.103,0.308l-0.024-0.01l-0.122-0.053l-0.31,0.071l-0.445,0.103l-0.591-0.138l-0.025-0.006l-0.458-0.26
	l-0.389-0.275l-0.399-0.704l-0.764-0.357l-0.552-0.723l-0.86-0.518l-0.418-0.514l-0.551-0.338l-0.744-0.123l-0.126,0.002
	l-0.398,0.216l-0.322,0.311l-0.82-0.51l-0.163-0.695l-0.126-0.252l-0.585-0.452l-0.388-0.125l-0.558-0.611l-0.255-0.809l-0.18-0.327
	l-0.778-0.918l-1.16-0.931l-0.853-0.414l-1.946-0.376l-0.587,0.115l-0.546,0.35l-0.341,0.476l-0.03,0.212l0.069,0.155l0.105,0.232
	l0.075,0.146l-1.685-0.183l0.128-0.2l0.149-0.088l0.166-0.07L41.941,176l1.209-3.087l0.349-1.114l0.132-0.678v-0.44l-0.113-0.518
	l-0.378-0.521l-0.011-0.503l-0.051-0.175l-0.749-1.389l-0.06-0.198l0.029-0.09l0.202,0.104l0.64-0.208l0.062-0.342l-0.302-0.772
	l-0.303-0.246l-0.261-0.45l-0.073-0.284l-0.185-0.284l-0.038-0.06l-0.658-0.627l-0.482-0.154l-0.423,0.108l-0.091,0.215l0.042,0.155
	l-0.056,0.124l-0.163,0.038l-0.176-0.176l-0.333-0.915l0.236-0.547l0.055-1.085l-0.525-1.376l-0.563-1.129l-0.588-0.987
	l-0.192-0.587l-0.54-0.421l-0.682-0.716l-1.172-0.908l-1.571-0.811l-1.201-1.344l-0.331-0.158l-1.126-1.028l-0.335-1.095
	l-0.197-0.309l-0.729-0.495l-0.219-0.66l-0.583-1.135l-0.158-0.114l-0.074-0.325l-0.847-1.382l-0.278-0.57l-0.62-0.792l-0.935-0.717
	l-0.813-0.471l-0.323-0.538l-0.25-0.657l-0.261-0.381l-0.967-0.994l-0.254-0.218l-0.219-0.012l-0.44-0.519l-0.035-0.217
	l-0.118-0.173l-1.073-0.985l-0.135-0.013l-0.155-0.073l-0.142-0.409l-0.059-0.491l-0.157-0.312l-0.902-0.976l-0.709-0.903
	l-0.488-0.211l-0.048-0.535l0.06-0.3l-0.381-0.803l0.203-0.028l0.133-0.067l0.275-0.304l0.373-0.573l0.54-1.167l0.245-0.732
	l0.044-0.433l-0.07-1.16l-0.535-2.28l-0.233-0.758l-0.45-0.655l-0.058-0.171l-0.095-0.951l-0.567-1.208l-0.158-0.1l-0.262-0.826
	l-0.021-1.11l-0.289-1.211l-0.354-0.329l-0.146-0.334l0.081-0.206l-0.025-0.364l-0.229-0.942l0.114-0.503l-0.253-0.65l-0.146-0.23
	l-0.069-0.752l-0.014-0.349l0.159-0.489l0.077-1.179l0.333-1.734L18,110.86l0.422-0.736l0.216-0.521l0.473-1.357l-0.008-0.312
	l-0.569-2.001l0.141-0.212l0.068-0.524l-0.045-1.698l-0.153-1.075l-0.455-1.197l-0.532-0.355l-0.148-0.226l-0.051-0.336
	l-0.097-0.364l-0.068-0.605l0.087-1.046l-0.042-0.858l-0.31-1.622l-0.063-0.094l-0.891-0.547l-0.827-0.821L14.929,93.8l-0.01-0.256
	l-0.402-1.282l-0.794-0.602l-0.219-0.685l-0.516-1.123l-0.498-0.494l-0.861-1.293l-0.366-0.551l-0.651-0.521l-0.285-0.037
	l-0.136,0.146l-0.116-0.066l-0.24-0.323L9.9,85.114L9.719,84.56l-0.713-1.157l-0.939-0.607l-0.998-0.403L6.52,82.082l-0.816-1.385
	l-0.508-0.5l-0.869-0.61l-1.194-1.151l-0.759-0.829l-0.196-0.485l-0.49-0.32l-0.301-0.303l-0.325-0.483l0.032-0.67l0.619-1.658
	l-0.13-0.748l-0.105-0.165l-0.166-0.672l-0.02-1.095l-0.225-0.81l-0.165-0.27l-0.387-0.385L0.188,68.86L0,68.145l0.046-0.224
	l0.442-0.808l0.456-1.195l0.083-0.438l-0.112-0.231l0.174-0.609l0.132-0.163l0.577-1.105l1.294-2.911l0.526-0.987l0.089-0.075
	l0.865-1.638l1.474-2.363l0.746-1.466l0.951-1.52l0.92-1.645l0.681-1.392l0.817-2.143l0.773-2.756l0.291-1.698l-0.383-0.917
	l-0.235-0.188l-0.167-0.091l-0.152,0.005l-0.145,0.042l-0.06,0.059L10.006,41.7l-0.071-0.112l0.002-0.281l0.052-1.197l-0.167-0.532
	l0.105-1.005L9.74,38.216l0.068-0.386l0.188-0.181l0.283,0.112l0.201-0.158l0.798-1.94l0.608-1.726l0.046-0.482l0.573-2.039
	l0.576-2.586l0.286-1.205l0.457-2.826L13.809,23.69z"/>
<path fill="#AEB5B9" stroke="#808080" d="M93.72,48.204l10-10l0,0"/>
<path fill="#AEB5B9" stroke="#808080" d="M93.72,45.204c1.657,0,3,1.343,3,3c0,1.657-1.343,3-3,3c-1.657,0-3-1.343-3-3
	C90.72,46.547,92.063,45.204,93.72,45.204z"/>
<path fill="#AEB5B9" stroke="#808080" d="M103.72,38.204h104.335"/>
<path fill="#AEB5B9" stroke="#808080" d="M126.772,81.599l-10,10l0,0"/>
<path fill="#AEB5B9" stroke="#808080" d="M115.166,91.599c1.657,0,3,1.343,3,3c0,1.657-1.343,3-3,3c-1.657,0-3-1.343-3-3
	C112.166,92.942,113.509,91.599,115.166,91.599z"/>
<path fill="#AEB5B9" stroke="#808080" d="M126.219,81.599h94.25"/>
<path fill="none" stroke="#808080" d="M114.86,114.393l-10-10l0,0"/>
<path fill="#AEB5B9" stroke="#808080" d="M116.348,113.537c1.657,0,3,1.343,3,3c0,1.657-1.343,3-3,3c-1.657,0-3-1.343-3-3
	C113.348,114.88,114.692,113.537,116.348,113.537z"/>
<path stroke="#808080" d="M24.555,104.393h80.611"/>
<path fill="#AEB5B9" stroke="#808080" d="M109.86,130.657l-10,10l0,0"/>
<path fill="#AEB5B9" stroke="#808080" d="M109.86,127.657c1.657,0,3,1.343,3,3c0,1.657-1.343,3-3,3c-1.657,0-3-1.343-3-3
	C106.86,128.999,108.203,127.657,109.86,127.657z"/>
<path stroke="#808080" d="M25.969,140.657h73.892"/>
<path fill="none" stroke="#808080" d="M124.772,138.87l20.56-19.333l0,0"/>
<path fill="#AEB5B9" stroke="#808080" d="M124.772,135.87c1.657,0,3,1.343,3,3c0,1.657-1.343,3-3,3c-1.657,0-3-1.343-3-3
	C121.772,137.214,123.115,135.87,124.772,135.87z"/>
<path stroke="#808080" d="M144.79,119.537h85.697"/>
<path fill="none" stroke="#808080" d="M135.331,160.161l25.802-7.893l0,0"/>
<path fill="#AEB5B9" stroke="#808080" d="M135.331,157.161c1.657,0,3,1.343,3,3c0,1.657-1.343,3-3,3c-1.657,0-3-1.343-3-3
	C132.331,158.504,133.675,157.161,135.331,157.161z"/>
<path stroke="#808080" d="M160.344,152.099h94.918"/>
<path fill="#AEB5B9" stroke="#808080" d="M123.2,171.747l-10,10l0,0"/>
<path fill="#AEB5B9" stroke="#808080" d="M123.2,168.747c1.657,0,3,1.343,3,3c0,1.657-1.343,3-3,3c-1.657,0-3-1.343-3-3
	C120.2,170.09,121.543,168.747,123.2,168.747z"/>
<path stroke="#808080" d="M29.555,181.747H113.2"/>
<path fill="#AEB5B9" stroke="#808080" d="M139.692,170.134l1,1h49"/>
<path fill="#AEB5B9" stroke="#808080" d="M139.692,167.134c1.657,0,3,1.343,3,3c0,1.657-1.343,3-3,3c-1.657,0-3-1.343-3-3
	C136.692,168.477,138.035,167.134,139.692,167.134z"/>
<path stroke="#808080" d="M189.692,171.134h94.25"/>
<path fill="none" stroke="#808080" d="M147.639,182.594l35,24.522h45"/>
<path fill="#AEB5B9" stroke="#808080" d="M147.639,179.594c1.657,0,3,1.343,3,3c0,1.657-1.343,3-3,3s-3-1.343-3-3
	C144.639,180.937,145.982,179.594,147.639,179.594z"/>
<path stroke="#808080" d="M220.469,207.117h69.586"/>
<path fill="none" stroke="#808080" d="M151.676,195.41l-24.904,22.6l0,0"/>
<path fill="#AEB5B9" stroke="#808080" d="M151.676,192.41c1.657,0,3,1.343,3,3c0,1.657-1.343,3-3,3c-1.657,0-3-1.343-3-3
	C148.676,193.753,150.019,192.41,151.676,192.41z"/>
<path stroke="#808080" d="M29.555,218.01h96.817"/>
<path fill="none" stroke="#808080" d="M170.344,210.117l-20,20v30"/>
<path fill="#AEB5B9" stroke="#808080" d="M170.344,207.117c1.657,0,3,1.342,3,3c0,1.656-1.343,3-3,3c-1.657,0-3-1.344-3-3
	C167.344,208.458,168.687,207.117,170.344,207.117z"/>
<text transform="matrix(1 0 0 1 105.1655 22.5132)" fill="#50354C" font-family="'ArialMT'" font-size="10">Sacramento River near</text>
<text transform="matrix(1 0 0 1 105.1655 34.5132)" fill="#50354C" font-family="'ArialMT'" font-size="10">Red Bluff</text>
<text transform="matrix(1 0 0 1 150.3442 272.0132)" fill="#50354C" font-family="'ArialMT'" font-size="10">San Joaquin River at</text>
<text transform="matrix(1 0 0 1 150.3442 284.0132)" fill="#50354C" font-family="'ArialMT'" font-size="10">Millerton Reservoir</text>
<text transform="matrix(1 0 0 1 127.0054 67.0132)" fill="#50354C" font-family="'ArialMT'" font-size="10">Feather River near</text>
<text transform="matrix(1 0 0 1 127.0054 79.0132)" fill="#50354C" font-family="'ArialMT'" font-size="10">Oroville</text>
<text transform="matrix(1 0 0 1 23.9194 86.5991)" fill="#50354C" font-family="'ArialMT'" font-size="10">Yuba River at</text>
<text transform="matrix(1 0 0 1 40.6089 98.5991)" fill="#50354C" font-family="'ArialMT'" font-size="10">Smartville</text>
<text transform="matrix(1 0 0 1 26.6909 152.0991)" fill="#50354C" font-family="'ArialMT'" font-size="10">Bear River near</text>
<text transform="matrix(1 0 0 1 48.9126 164.0991)" fill="#50354C" font-family="'ArialMT'" font-size="10">Wheatland</text>
<text transform="matrix(1 0 0 1 29.9155 192.5991)" fill="#50354C" font-family="'ArialMT'" font-size="10">Calaveras River at</text>
<text transform="matrix(1 0 0 1 63.7974 204.5991)" fill="#50354C" font-family="'ArialMT'" font-size="10">Jenny Lind</text>
<text transform="matrix(1 0 0 1 54.2837 229.7065)" fill="#50354C" font-family="'ArialMT'" font-size="10">Merced River at</text>
<text transform="matrix(1 0 0 1 31.4858 241.7065)" fill="#50354C" font-family="'ArialMT'" font-size="10">Exchequer Reservoir</text>
<text transform="matrix(1 0 0 1 187.6392 220.0132)" fill="#50354C" font-family="'ArialMT'" font-size="10">Tuolumne River at Don</text>
<text transform="matrix(1 0 0 1 187.6392 232.0132)" fill="#50354C" font-family="'ArialMT'" font-size="10">Pedro Reservoir</text>
<text transform="matrix(1 0 0 1 144.6392 104.3931)" fill="#50354C" font-family="'ArialMT'" font-size="10">American River at</text>
<text transform="matrix(1 0 0 1 144.6392 116.3931)" fill="#50354C" font-family="'ArialMT'" font-size="10">Fair Oaks</text>
<text transform="matrix(1 0 0 1 162.8452 135.8706)" fill="#50354C" font-family="'ArialMT'" font-size="10">Mokelumne River at</text>
<text transform="matrix(1 0 0 1 162.8452 147.8706)" fill="#50354C" font-family="'ArialMT'" font-size="10">Pardee Reserovir</text>
<text transform="matrix(1 0 0 1 199.5513 182.5942)" fill="#50354C" font-family="'ArialMT'" font-size="10">Stanislaus River at</text>
<text transform="matrix(1 0 0 1 199.5513 194.5942)" fill="#50354C" font-family="'ArialMT'" font-size="10">Melones Reserovir</text>
</svg>
